# xmcd
#
# Track frame offsets: 
#        150
#        32462
#        55982
#        86225
#        108367
#        135112
#
# Disc length: 2313 seconds
#
# Revision: 6
# Processed by: cddbd v1.5.2PL0 Copyright (c) Steve Scherf et al.
# Submitted via: ExactAudioCopy v1.0b3
#
DISCID=42090706
DTITLE=Ария - Герой асфальта
DYEAR=1987
DGENRE=Heavy Metal
TTITLE0=На службе силы зла
TTITLE1=Герой асфальта
TTITLE2=Мертвая зона
TTITLE3=1100
TTITLE4=Улица роз
TTITLE5=Баллада о древнерусском воине
EXTD=
EXTT0=
EXTT1=
EXTT2=
EXTT3=
EXTT4=
EXTT5=
PLAYORDER=
